<?xml version="1.0" encoding="UTF-8" standalone="no"?>
<svg
   width="24"
   height="24"
   viewBox="0 0 24 24"
   version="1.1"
   id="svg866"
   sodipodi:docname="alfobre-heritage-icon.svg"
   inkscape:version="1.1.2 (0a00cf5, 2022-02-04)"
   xmlns:inkscape="http://www.inkscape.org/namespaces/inkscape"
   xmlns:sodipodi="http://sodipodi.sourceforge.net/DTD/sodipodi-0.dtd"
   xmlns="http://www.w3.org/2000/svg"
   xmlns:svg="http://www.w3.org/2000/svg">
  <defs
     id="defs870" />
  <sodipodi:namedview
     id="namedview868"
     pagecolor="#ffffff"
     bordercolor="#666666"
     borderopacity="1.0"
     inkscape:pageshadow="2"
     inkscape:pageopacity="0.0"
     inkscape:pagecheckerboard="0"
     showgrid="false"
     inkscape:zoom="30.370935"
     inkscape:cx="7.1614522"
     inkscape:cy="13.845474"
     inkscape:current-layer="g4057" />
  <g
     id="g4057"
     transform="translate(-24.894531,1.6289062)">
    <path
       id="path880"
       d="m 36.894531,-1.6289062 -12,8 h 1.5 l 10.5,-7 10.5,7 h 1.5 z m -11,23.0000002 v 1 h 22 v -1 z"
       sodipodi:nodetypes="cccccccccccc" />
    <path
       d="m 48.894531,6.3710938 h -24 v 1 h 24 z"
       id="path2762"
       style="stroke-width:1.36879"
       sodipodi:nodetypes="ccccc" />
    <g
       id="g4783"
       transform="matrix(1,0,0,1.0411512,-0.01467722,-9.1845577)">
      <path
         d="m 27.9092,16.861769 1.6e-5,11.525704 h 0.999992 V 16.861769 Z"
         id="path4603"
         sodipodi:nodetypes="ccccc" />
    </g>
    <path
       d="m 44.894523,8.3710933 1.6e-5,12.0000007 h 1 V 8.3710933 Z"
       id="path7489"
       sodipodi:nodetypes="ccccc" />
    <path
       d="m 40.894523,8.3710933 1.6e-5,12.0000007 h 1.000008 V 8.3710933 Z"
       id="path7489-5"
       sodipodi:nodetypes="ccccc" />
    <path
       d="m 31.894531,8.3710933 1.6e-5,12.0000007 h 0.999984 V 8.3710933 Z"
       id="path7489-5-3"
       sodipodi:nodetypes="ccccc" />
    <path
       d="m 36.394523,8.3710933 1.6e-5,12.0000007 h 0.999992 V 8.3710933 Z"
       id="path8187"
       sodipodi:nodetypes="ccccc" />
  </g>
</svg>
