<?xml version="1.0" encoding="UTF-8" standalone="no"?>
<!-- Uploaded to: SVG Repo, www.svgrepo.com, Generator: SVG Repo Mixer Tools -->

<svg
   xmlns:dc="http://purl.org/dc/elements/1.1/"
   xmlns:cc="http://creativecommons.org/ns#"
   xmlns:rdf="http://www.w3.org/1999/02/22-rdf-syntax-ns#"
   xmlns:svg="http://www.w3.org/2000/svg"
   xmlns="http://www.w3.org/2000/svg"
   xmlns:sodipodi="http://sodipodi.sourceforge.net/DTD/sodipodi-0.dtd"
   xmlns:inkscape="http://www.inkscape.org/namespaces/inkscape"
   width="800px"
   height="800px"
   viewBox="0 0 24 24"
   fill="none"
   version="1.1"
   id="svg885"
   sodipodi:docname="aal-creativity.svg"
   inkscape:version="0.92.3 (2405546, 2018-03-11)"
   inkscape:export-filename="C:\Users\tic\Downloads\aal-creativity.png"
   inkscape:export-xdpi="73.773148"
   inkscape:export-ydpi="73.773148">
  <metadata
     id="metadata891">
    <rdf:RDF>
      <cc:Work
         rdf:about="">
        <dc:format>image/svg+xml</dc:format>
        <dc:type
           rdf:resource="http://purl.org/dc/dcmitype/StillImage" />
        <dc:title />
      </cc:Work>
    </rdf:RDF>
  </metadata>
  <defs
     id="defs889" />
  <sodipodi:namedview
     pagecolor="#ffffff"
     bordercolor="#666666"
     borderopacity="1"
     objecttolerance="10"
     gridtolerance="10"
     guidetolerance="10"
     inkscape:pageopacity="0"
     inkscape:pageshadow="2"
     inkscape:window-width="1680"
     inkscape:window-height="987"
     id="namedview887"
     showgrid="false"
     inkscape:zoom="0.69826795"
     inkscape:cx="628.35081"
     inkscape:cy="308.96701"
     inkscape:window-x="-8"
     inkscape:window-y="-8"
     inkscape:window-maximized="1"
     inkscape:current-layer="svg885" />
  <rect
     style="fill:#ffffff;fill-opacity:1;stroke:none;stroke-width:0.60000002;stroke-miterlimit:4;stroke-dasharray:none;stroke-opacity:1"
     id="rect839"
     width="26.852156"
     height="26.551411"
     x="-1.7615016"
     y="-1.0476911" />
  <path
     style="fill:#000000;stroke-width:1.56483436"
     inkscape:connector-curvature="0"
     d="M 2.2800311,5.1984473 C 2.2808947,4.3088972 3.0022601,3.5882322 3.8918106,3.5882327 H 20.108189 c 2.215991,-0.069072 2.215991,3.2910661 0,3.221994 H 3.8902457 C 3.001307,6.8085006 2.2815943,6.0873877 2.281596,5.1984473 Z m 9.7783729,6.8023347 c -8.63e-4,0.88955 -0.722229,1.610215 -1.611779,1.610215 H 3.8918106 c -2.0820857,-0.0649 -2.0820857,-3.157096 0,-3.221994 h 6.5579434 c 0.88955,8.63e-4 1.610215,0.722229 1.610215,1.611779 z m 0,6.799206 c 0,0.890161 -0.721618,1.611779 -1.611779,1.611779 H 3.8918106 c -2.2159907,0.06907 -2.2159907,-3.291066 0,-3.221994 h 6.5579434 c 0.88955,8.63e-4 1.610216,0.722229 1.610215,1.61178 z"
     id="path903"
     sodipodi:nodetypes="csccccccsccccccsccccc" />
  <g
     style="fill:#000000"
     id="g4676"
     transform="matrix(0.77639684,0,0,0.75715726,13.729814,7.785783)">
    <path
       id="path4665"
       d="m 10.328,6.83 a 5.903,5.903 0 0 1 -1.439,3.64 2.874,2.874 0 0 0 -0.584,1 v 1.037 a 0.95,0.95 0 0 1 -0.95,0.95 h -3.71 a 0.95,0.95 0 0 1 -0.95,-0.95 V 11.47 a 2.876,2.876 0 0 0 -0.584,-1 5.903,5.903 0 0 1 -1.441,-3.64 4.83,4.83 0 0 1 9.28,-1.878 4.796,4.796 0 0 1 0.38,1.88 z m -0.95,0 a 3.878,3.878 0 0 0 -7.756,0 c 0,2.363 2.023,3.409 2.023,4.64 v 1.037 h 3.71 V 11.47 c 0,-1.231 2.023,-2.277 2.023,-4.64 z M 7.83,14.572 a 0.475,0.475 0 0 1 -0.475,0.476 h -3.71 a 0.475,0.475 0 0 1 0,-0.95 h 3.71 a 0.475,0.475 0 0 1 0.475,0.474 z m -0.64,1.262 a 0.238,0.238 0 0 1 -0.078,0.265 2.669,2.669 0 0 1 -3.274,0 0.237,0.237 0 0 1 0.145,-0.425 h 2.983 a 0.238,0.238 0 0 1 0.225,0.16 z"
       inkscape:connector-curvature="0" />
  </g>
</svg>
