<?xml version="1.0" encoding="UTF-8" standalone="no"?>
<!-- Uploaded to: SVG Repo, www.svgrepo.com, Generator: SVG Repo Mixer Tools -->

<svg
   width="800px"
   height="800px"
   viewBox="0 0 24 24"
   fill="none"
   version="1.1"
   id="svg885"
   sodipodi:docname="A-DTCH.svg"
   inkscape:version="1.2.2 (b0a8486, 2022-12-01)"
   inkscape:export-filename="C:\Users\tic\Downloads\aal-creativity.png"
   inkscape:export-xdpi="73.773148"
   inkscape:export-ydpi="73.773148"
   xml:space="preserve"
   xmlns:inkscape="http://www.inkscape.org/namespaces/inkscape"
   xmlns:sodipodi="http://sodipodi.sourceforge.net/DTD/sodipodi-0.dtd"
   xmlns="http://www.w3.org/2000/svg"
   xmlns:svg="http://www.w3.org/2000/svg"
   xmlns:rdf="http://www.w3.org/1999/02/22-rdf-syntax-ns#"
   xmlns:cc="http://creativecommons.org/ns#"
   xmlns:dc="http://purl.org/dc/elements/1.1/"><metadata
     id="metadata891"><rdf:RDF><cc:Work
         rdf:about=""><dc:format>image/svg+xml</dc:format><dc:type
           rdf:resource="http://purl.org/dc/dcmitype/StillImage" /><dc:title /></cc:Work></rdf:RDF></metadata><defs
     id="defs889"><style
       id="style1402">.cls-1{fill:none;stroke:#020202;stroke-miterlimit:10;stroke-width:1.91px;}</style></defs><sodipodi:namedview
     pagecolor="#ffffff"
     bordercolor="#666666"
     borderopacity="1"
     objecttolerance="10"
     gridtolerance="10"
     guidetolerance="10"
     inkscape:pageopacity="0"
     inkscape:pageshadow="2"
     inkscape:window-width="1920"
     inkscape:window-height="1043"
     id="namedview887"
     showgrid="false"
     inkscape:zoom="0.49375"
     inkscape:cx="264.3038"
     inkscape:cy="301.77215"
     inkscape:window-x="1920"
     inkscape:window-y="0"
     inkscape:window-maximized="1"
     inkscape:current-layer="svg885"
     inkscape:showpageshadow="2"
     inkscape:pagecheckerboard="0"
     inkscape:deskcolor="#d1d1d1" /><rect
     style="fill:#ffffff;fill-opacity:1;stroke:none;stroke-width:0.60000002;stroke-miterlimit:4;stroke-dasharray:none;stroke-opacity:1"
     id="rect839"
     width="26.852156"
     height="26.551411"
     x="-1.7615016"
     y="-1.0476911" /><path
     style="fill:#000000;stroke-width:1.56483436"
     inkscape:connector-curvature="0"
     d="M 2.2800311,5.1984473 C 2.2808947,4.3088972 3.0022601,3.5882322 3.8918106,3.5882327 H 20.108189 c 2.215991,-0.069072 2.215991,3.2910661 0,3.221994 H 3.8902457 C 3.001307,6.8085006 2.2815943,6.0873877 2.281596,5.1984473 Z m 9.7783729,6.8023347 c -8.63e-4,0.88955 -0.722229,1.610215 -1.611779,1.610215 H 3.8918106 c -2.0820857,-0.0649 -2.0820857,-3.157096 0,-3.221994 h 6.5579434 c 0.88955,8.63e-4 1.610215,0.722229 1.610215,1.611779 z m 0,6.799206 c 0,0.890161 -0.721618,1.611779 -1.611779,1.611779 H 3.8918106 c -2.2159907,0.06907 -2.2159907,-3.291066 0,-3.221994 h 6.5579434 c 0.88955,8.63e-4 1.610216,0.722229 1.610215,1.61178 z"
     id="path903"
     sodipodi:nodetypes="csccccccsccccccsccccc" /><g
     id="g1428"
     transform="matrix(0.33338091,0,0,0.33338091,13.938169,9.301715)"><path
       class="cls-1"
       d="M 19.64,1.52 H 4.36 A 2.87,2.87 0 1 0 7.05,5.34 H 17 a 2.86,2.86 0 1 0 2.69,-3.82 z"
       id="path1406" /><line
       class="cls-1"
       x1="16.940001"
       y1="5.3400002"
       x2="7.0599999"
       y2="5.3400002"
       id="line1408" /><line
       class="cls-1"
       x1="17.370052"
       y1="23.120052"
       x2="17.370052"
       y2="6.1500521"
       id="line1410" /><line
       class="cls-1"
       x1="17.370041"
       y1="33.277493"
       x2="17.370041"
       y2="16.307493"
       id="line1410-3"
       style="fill:none;stroke:#020202;stroke-width:1.91px;stroke-miterlimit:10" /><line
       class="cls-1"
       x1="6.6299481"
       y1="23.146292"
       x2="6.6299481"
       y2="6.1762538"
       id="line1412-3"
       style="fill:none;stroke:#020202;stroke-width:1.91px;stroke-miterlimit:10" /><line
       class="cls-1"
       x1="6.6299829"
       y1="33.277493"
       x2="6.6299829"
       y2="16.307516"
       id="line1412-3-5"
       style="fill:none;stroke:#020202;stroke-width:1.91px;stroke-miterlimit:10" /><line
       class="cls-1"
       x1="10.09"
       y1="9.1599998"
       x2="10.09"
       y2="23.48"
       id="line1414" /><line
       class="cls-1"
       x1="13.91"
       y1="9.1599998"
       x2="13.91"
       y2="23.48"
       id="line1416" /><line
       class="cls-1"
       x1="10.090009"
       y1="19.008551"
       x2="10.090009"
       y2="33.328552"
       id="line1414-6"
       style="fill:none;stroke:#020202;stroke-width:2.10855px;stroke-miterlimit:10" /><line
       class="cls-1"
       x1="13.910034"
       y1="19.008551"
       x2="13.910034"
       y2="33.328552"
       id="line1416-7"
       style="fill:none;stroke:#020202;stroke-width:1.91px;stroke-miterlimit:10" /></g></svg>
