<?xml version="1.0" encoding="UTF-8" standalone="no"?>
<!-- Uploaded to: SVG Repo, www.svgrepo.com, Generator: SVG Repo Mixer Tools -->

<svg
   xmlns:dc="http://purl.org/dc/elements/1.1/"
   xmlns:cc="http://creativecommons.org/ns#"
   xmlns:rdf="http://www.w3.org/1999/02/22-rdf-syntax-ns#"
   xmlns:svg="http://www.w3.org/2000/svg"
   xmlns="http://www.w3.org/2000/svg"
   xmlns:sodipodi="http://sodipodi.sourceforge.net/DTD/sodipodi-0.dtd"
   xmlns:inkscape="http://www.inkscape.org/namespaces/inkscape"
   width="800px"
   height="800px"
   viewBox="0 0 24 24"
   fill="none"
   version="1.1"
   id="svg885"
   sodipodi:docname="aal-3d.svg"
   inkscape:version="0.92.4 (5da689c313, 2019-01-14)"
   inkscape:export-filename="C:\Users\tic\Downloads\aal-gis.png"
   inkscape:export-xdpi="73"
   inkscape:export-ydpi="73">
  <metadata
     id="metadata891">
    <rdf:RDF>
      <cc:Work
         rdf:about="">
        <dc:format>image/svg+xml</dc:format>
        <dc:type
           rdf:resource="http://purl.org/dc/dcmitype/StillImage" />
        <dc:title></dc:title>
      </cc:Work>
    </rdf:RDF>
  </metadata>
  <defs
     id="defs889" />
  <sodipodi:namedview
     pagecolor="#ffffff"
     bordercolor="#666666"
     borderopacity="1"
     objecttolerance="10"
     gridtolerance="10"
     guidetolerance="10"
     inkscape:pageopacity="0"
     inkscape:pageshadow="2"
     inkscape:window-width="1368"
     inkscape:window-height="841"
     id="namedview887"
     showgrid="false"
     inkscape:zoom="0.246875"
     inkscape:cx="917.35674"
     inkscape:cy="206.35936"
     inkscape:window-x="-8"
     inkscape:window-y="-8"
     inkscape:window-maximized="1"
     inkscape:current-layer="svg885" />
  <rect
     style="fill:#ffffff;fill-opacity:1;stroke:none;stroke-width:0.60000002;stroke-miterlimit:4;stroke-dasharray:none;stroke-opacity:1"
     id="rect839"
     width="26.852156"
     height="26.551411"
     x="-2.1917534"
     y="-1.1581378" />
  <path
     style="fill:#000000;stroke-width:1.56483436"
     inkscape:connector-curvature="0"
     d="M 2.2800311,5.1984473 C 2.2808947,4.3088972 3.0022601,3.5882322 3.8918106,3.5882327 H 20.108189 c 2.215991,-0.069072 2.215991,3.2910661 0,3.221994 H 3.8902457 C 3.001307,6.8085006 2.2815943,6.0873877 2.281596,5.1984473 Z m 9.7783729,6.8023347 c -8.63e-4,0.88955 -0.722229,1.610215 -1.611779,1.610215 H 3.8918106 c -2.0820857,-0.0649 -2.0820857,-3.157096 0,-3.221994 h 6.5579434 c 0.88955,8.63e-4 1.610215,0.722229 1.610215,1.611779 z m 0,6.799206 c 0,0.890161 -0.721618,1.611779 -1.611779,1.611779 H 3.8918106 c -2.2159907,0.06907 -2.2159907,-3.291066 0,-3.221994 h 6.5579434 c 0.88955,8.63e-4 1.610216,0.722229 1.610215,1.61178 z"
     id="path903"
     sodipodi:nodetypes="csccccccsccccccsccccc" />
  <path
     sodipodi:type="inkscape:offset"
     inkscape:radius="0.10979541"
     inkscape:original="M 17.666016 9.0449219 C 15.427164 9.0449219 13.589844 10.875653 13.589844 13.109375 C 13.589844 13.975093 13.866469 14.782613 14.333984 15.443359 L 16.964844 19.994141 L 16.976562 20.007812 C 17.080759 20.143929 17.183263 20.251075 17.302734 20.330078 C 17.422322 20.409198 17.569494 20.457836 17.714844 20.443359 C 18.005887 20.414179 18.184453 20.20777 18.353516 19.978516 L 18.363281 19.966797 L 21.279297 15.003906 L 21.28125 15 C 21.34965 14.876424 21.400495 14.751342 21.443359 14.628906 A 4.0172567 4.0172567 0 0 0 21.740234 13.109375 C 21.740234 10.875653 19.904754 9.0449219 17.666016 9.0449219 z M 17.666016 9.6152344 C 19.594331 9.6152344 21.171875 11.187786 21.171875 13.109375 C 21.171875 13.571875 21.08005 14.014538 20.914062 14.419922 L 20.910156 14.425781 L 20.908203 14.433594 C 20.871273 14.539843 20.830971 14.638196 20.783203 14.724609 L 17.890625 19.644531 C 17.757016 19.822371 17.659002 19.874885 17.658203 19.875 C 17.657861 19.875 17.657228 19.881959 17.617188 19.855469 C 17.578657 19.830049 17.512269 19.766462 17.435547 19.667969 L 14.806641 15.125 L 14.800781 15.113281 C 14.398018 14.543964 14.160156 13.855636 14.160156 13.111328 C 14.160156 11.189853 15.737701 9.6152344 17.666016 9.6152344 z M 17.666016 10.816406 C 16.393317 10.816406 15.365234 11.840909 15.365234 13.111328 C 15.365234 14.38152 16.39343 15.404297 17.666016 15.404297 C 18.938601 15.404297 19.964844 14.379794 19.964844 13.109375 C 19.964844 11.839184 18.938715 10.816406 17.666016 10.816406 z M 17.666016 11.386719 C 18.637299 11.386719 19.394531 12.144035 19.394531 13.111328 C 19.394531 14.078393 18.637299 14.833984 17.666016 14.833984 C 16.694734 14.833984 15.935547 14.076554 15.935547 13.109375 C 15.935547 12.142311 16.694847 11.386719 17.666016 11.386719 z "
     style="fill:#000000;fill-opacity:1;stroke:none;stroke-width:0.1140003;stroke-opacity:1"
     id="path4755"
     d="m 17.666016,8.9355469 c -2.298706,0 -4.185547,1.8798991 -4.185547,4.1738281 0,0.889107 0.283589,1.717977 0.763672,2.396484 l 2.625,4.542969 a 0.10980639,0.10980639 0 0 0 0.01172,0.01758 l 0.0078,0.0078 c 0.108419,0.141632 0.220049,0.259398 0.353516,0.347656 0.13689,0.09057 0.307617,0.148465 0.484374,0.130859 0.337747,-0.03386 0.542547,-0.276125 0.714844,-0.509765 l 0.0059,-0.0059 a 0.10980639,0.10980639 0 0 0 0.0098,-0.01563 l 2.916016,-4.96289 a 0.10980639,0.10980639 0 0 0 0.0039,-0.0059 l 0.002,-0.0039 c 0.07055,-0.128172 0.122638,-0.255422 0.166016,-0.378906 0.201289,-0.494101 0.305206,-1.027018 0.304687,-1.560547 0,-2.293869 -1.884998,-4.1738281 -4.183593,-4.1738281 z m 0,0.7890625 c 1.868622,0 3.396484,1.5232686 3.396484,3.3847656 0,0.445164 -0.0892,0.871145 -0.248047,1.261719 a 0.10980639,0.10980639 0 0 0 -0.002,0.0039 0.10980639,0.10980639 0 0 0 -0.0098,0.02344 l -0.002,0.0078 c -0.0348,0.09912 -0.0712,0.189498 -0.113281,0.265625 l -2.884766,4.90625 c -0.06141,0.08173 -0.113356,0.131898 -0.148437,0.162109 -0.02502,-0.02055 -0.06999,-0.0604 -0.128906,-0.134765 l -2.621094,-4.533203 -0.0059,-0.0078 a 0.10980639,0.10980639 0 0 0 -0.0078,-0.01367 c -0.390436,-0.551892 -0.621094,-1.218537 -0.621094,-1.939453 0,-1.86138 1.527941,-3.3867186 3.396485,-3.3867186 z m 0,0.9824216 c -1.331622,0 -2.410157,1.074644 -2.410157,2.404297 0,1.329444 1.078742,2.402344 2.410157,2.402344 1.331512,0 2.408203,-1.07475 2.408203,-2.404297 0,-1.329323 -1.076681,-2.402344 -2.408203,-2.402344 z m 0,0.789063 c 0.91421,0 1.61914,0.705242 1.61914,1.615234 0,0.90975 -0.7048,1.613281 -1.61914,1.613281 -0.914202,0 -1.621094,-0.705511 -1.621094,-1.615234 0,-0.909593 0.706874,-1.613281 1.621094,-1.613281 z"
     transform="matrix(0.89614922,0,0,0.95522182,12.789488,0.76457058)" />
  <g
     style="fill:#000000"
     id="g3781"
     transform="matrix(0.18719757,0,0,0.18719757,13.389126,10.286183)"
     inkscape:transform-center-x="-1.3974683"
     inkscape:transform-center-y="0.12151899">
    <path
       id="path3770"
       d="m 4.7589486,43.095678 16.4214804,9.329908 c 1.213332,0.690298 2.342943,0.711273 3.598135,0 l 16.421481,-9.329908 c 1.94549,-1.108726 3.012265,-2.238336 3.012265,-5.271666 V 21.256065 c 0,-2.321968 -0.920218,-3.639906 -2.635698,-4.623138 L 26.7868,8.2235044 c -2.573041,-1.4852915 -5.083337,-1.4644058 -7.614607,0 L 4.382382,16.632927 c -1.7153908,0.983232 -2.6357878,2.30117 -2.6357878,4.623138 v 16.567947 c 0,3.03333 1.0668644,4.16294 3.0123544,5.271666 z M 22.979452,28.180285 7.0391445,19.164197 20.657485,11.382237 c 1.589809,-0.899512 3.012354,-0.920397 4.644024,0 l 13.618429,7.78196 z M 6.7253241,40.166955 C 5.5329674,39.497543 5.1355151,38.849016 5.1355151,37.719406 V 22.113715 L 21.22229,31.297246 v 17.111868 z m 32.5083449,0 -14.496966,8.242159 V 31.297246 l 16.086775,-9.183531 v 15.605691 c 0,1.12961 -0.397541,1.778137 -1.589809,2.447549 z"
       inkscape:connector-curvature="0"
       style="stroke-width:0.8925494" />
  </g>
</svg>
