<?xml version="1.0" encoding="UTF-8" standalone="no"?>
<!-- Uploaded to: SVG Repo, www.svgrepo.com, Generator: SVG Repo Mixer Tools -->

<svg
   width="800px"
   height="800px"
   viewBox="0 0 32 32"
   version="1.1"
   id="svg24"
   sodipodi:docname="alfobre3.svg"
   inkscape:version="1.2.2 (b0a8486, 2022-12-01)"
   xmlns:inkscape="http://www.inkscape.org/namespaces/inkscape"
   xmlns:sodipodi="http://sodipodi.sourceforge.net/DTD/sodipodi-0.dtd"
   xmlns="http://www.w3.org/2000/svg"
   xmlns:svg="http://www.w3.org/2000/svg"
   xmlns:rdf="http://www.w3.org/1999/02/22-rdf-syntax-ns#"
   xmlns:cc="http://creativecommons.org/ns#"
   xmlns:dc="http://purl.org/dc/elements/1.1/">
  <metadata
     id="metadata30">
    <rdf:RDF>
      <cc:Work
         rdf:about="">
        <dc:format>image/svg+xml</dc:format>
        <dc:type
           rdf:resource="http://purl.org/dc/dcmitype/StillImage" />
      </cc:Work>
    </rdf:RDF>
  </metadata>
  <defs
     id="defs28">
    <inkscape:perspective
       sodipodi:type="inkscape:persp3d"
       inkscape:vp_x="0 : 16 : 1"
       inkscape:vp_y="0 : 1000 : 0"
       inkscape:vp_z="32 : 16 : 1"
       inkscape:persp3d-origin="16 : 10.666667 : 1"
       id="perspective141" />
  </defs>
  <sodipodi:namedview
     pagecolor="#ffffff"
     bordercolor="#666666"
     borderopacity="1"
     objecttolerance="10"
     gridtolerance="10"
     guidetolerance="10"
     inkscape:pageopacity="0"
     inkscape:pageshadow="2"
     inkscape:window-width="1920"
     inkscape:window-height="1043"
     id="namedview26"
     showgrid="false"
     inkscape:zoom="0.13543837"
     inkscape:cx="-92.2929"
     inkscape:cy="-465.15622"
     inkscape:window-x="1920"
     inkscape:window-y="0"
     inkscape:window-maximized="1"
     inkscape:current-layer="svg24"
     showguides="false"
     inkscape:showpageshadow="2"
     inkscape:pagecheckerboard="0"
     inkscape:deskcolor="#d1d1d1" />
  <g
     id="icomoon-ignore" />
  <g
     id="g113"
     transform="translate(42.084616,-17.236915)">
    <g
       id="icomoon-ignore-2" />
  </g>
  <g
     style="fill:#000000"
     id="g245"
     transform="matrix(0.05870134,0,0,0.05870134,0.93162787,1.1430423)">
    <g
       id="g233">
      <g
         id="g231">
        <path
           id="path229"
           d="m 424.415,98.085 c 24.64,16.32 57.813,9.6 74.133,-15.04 16.32,-24.64 9.6,-57.813 -15.04,-74.133 -24.64,-16.32 -57.813,-9.6 -74.133,15.04 -11.84,17.92 -11.84,41.173 0,59.093 l -91.093,91.093 c -0.533,0.533 -0.96,1.173 -1.28,1.92 -38.187,-36.373 -98.667,-34.88 -135.04,3.413 -0.747,0.853 -1.493,1.6 -2.24,2.453 l -69.333,-39.573 c 1.387,-4.587 2.027,-9.173 2.133,-13.973 0.32,-29.76 -23.573,-54.293 -53.333,-54.613 -29.76,-0.32 -54.294,23.574 -54.614,53.334 -0.32,29.76 23.573,54.293 53.333,54.613 16.64,0.213 32.533,-7.36 42.88,-20.373 l 66.453,37.973 c -20.16,36.373 -14.507,81.6 14.08,111.893 l -67.2,66.987 c -5.44,-2.987 -11.52,-4.587 -17.6,-4.587 -20.587,0 -37.333,16.747 -37.333,37.333 0,20.586 16.747,37.333 37.333,37.333 20.586,0 37.333,-16.747 37.333,-37.333 0,-6.187 -1.6,-12.267 -4.587,-17.6 l 68.16,-68.267 c 34.667,23.467 80.533,21.76 113.28,-4.373 l 56.533,66.027 c -28.053,30.187 -26.24,77.333 3.947,105.387 30.187,28.053 77.333,26.24 105.387,-3.947 28.053,-30.187 26.24,-77.333 -3.947,-105.387 -13.867,-12.8 -32,-19.84 -50.773,-19.84 -13.333,0 -26.453,3.627 -37.973,10.453 l -58.027,-67.627 c 26.667,-32.96 28.373,-79.573 4.267,-114.453 1.173,-0.533 2.24,-1.28 3.2,-2.133 z m 29.44,-76.48 c 17.707,0 32,14.293 32,32 0,17.707 -14.293,32 -32,32 -17.707,0 -32,-14.293 -32,-32 0,-17.707 14.293,-32 32,-32 z M 59.188,160.272 c -17.707,0 -32,-14.293 -32,-32 0,-17.707 14.293,-32 32,-32 17.707,0 32,14.293 32,32 0,17.707 -14.4,32 -32,32 z m 37.334,266.667 c -8.853,0 -16,-7.147 -16,-16 0,-8.853 7.147,-16 16,-16 8.853,0 16,7.147 16,16 0,8.853 -7.254,16 -16,16 z m 325.333,-42.667 c 29.44,0 53.333,23.893 53.333,53.333 -0.107,29.44 -23.893,53.227 -53.333,53.333 -29.44,0 -53.333,-23.893 -53.333,-53.333 0,-29.44 23.893,-53.333 53.333,-53.333 z m -170.667,-64 c -41.28,0 -74.667,-33.387 -74.667,-74.667 0,-41.28 33.387,-74.667 74.667,-74.667 41.28,0 74.667,33.387 74.667,74.667 -0.107,41.174 -33.493,74.56 -74.667,74.667 z"
           inkscape:connector-curvature="0" />
      </g>
    </g>
  </g>
  <g
     id="g139-7-5"
     transform="matrix(0.26394962,0,0,0.26394962,13.564842,11.497049)">
    <g
       id="icomoon-ignore-25-1-6" />
    <path
       id="path127-5-5"
       d="M 17.067,16.693 C 17.067,9.546 12.267,4.32 8.534,0 4.801,4.32 0.001,9.547 0.001,16.693 c 0,6.72 4.96,8.48 8,9.44 V 32 h 1.067 v -5.867 c 3.04,-0.96 8,-2.72 8,-9.44 z m -8,8.32 v -4.16 l 3.36,-3.36 -0.747,-0.747 -2.613,2.613 V 8.532 H 8 v 5.12 L 5.227,10.879 4.48,11.626 8,15.146 v 9.867 C 5.067,24.053 1.067,22.4 1.067,16.693 c 0,-6.24 3.893,-10.933 7.467,-15.04 3.573,4.107 7.467,8.8 7.467,15.04 0,5.707 -4,7.36 -6.933,8.32 z"
       inkscape:connector-curvature="0"
       style="fill:#000000" />
  </g>
  <g
     style="fill:#000000"
     id="icomoon-ignore-3-9"
     transform="translate(175.19038,-39.087607)" />
</svg>
